<mxfile host="Electron" agent="Mozilla/5.0 (Windows NT 10.0; Win64; x64) AppleWebKit/537.36 (KHTML, like Gecko) draw.io/26.0.9 Chrome/128.0.6613.186 Electron/32.2.5 Safari/537.36" version="26.0.9">
  <diagram name="Страница — 1" id="BkR31oJ4osxPgtdi_hkh">
    <mxGraphModel dx="1434" dy="844" grid="1" gridSize="10" guides="1" tooltips="1" connect="1" arrows="1" fold="1" page="1" pageScale="1" pageWidth="827" pageHeight="1169" math="0" shadow="0">
      <root>
        <mxCell id="0" />
        <mxCell id="1" parent="0" />
        <mxCell id="bVuMIwKVskYdWE2sDgEW-6" style="edgeStyle=orthogonalEdgeStyle;rounded=0;orthogonalLoop=1;jettySize=auto;html=1;entryX=0;entryY=0.5;entryDx=0;entryDy=0;exitX=0.5;exitY=0;exitDx=0;exitDy=0;" parent="1" source="bVuMIwKVskYdWE2sDgEW-1" target="bVuMIwKVskYdWE2sDgEW-5" edge="1">
          <mxGeometry relative="1" as="geometry" />
        </mxCell>
        <mxCell id="bVuMIwKVskYdWE2sDgEW-7" style="edgeStyle=orthogonalEdgeStyle;rounded=0;orthogonalLoop=1;jettySize=auto;html=1;exitX=1;exitY=0.5;exitDx=0;exitDy=0;entryX=0;entryY=0.5;entryDx=0;entryDy=0;" parent="1" source="bVuMIwKVskYdWE2sDgEW-1" target="bVuMIwKVskYdWE2sDgEW-3" edge="1">
          <mxGeometry relative="1" as="geometry" />
        </mxCell>
        <mxCell id="bVuMIwKVskYdWE2sDgEW-8" style="edgeStyle=orthogonalEdgeStyle;rounded=0;orthogonalLoop=1;jettySize=auto;html=1;entryX=0;entryY=0.5;entryDx=0;entryDy=0;" parent="1" source="bVuMIwKVskYdWE2sDgEW-1" target="bVuMIwKVskYdWE2sDgEW-2" edge="1">
          <mxGeometry relative="1" as="geometry" />
        </mxCell>
        <mxCell id="bVuMIwKVskYdWE2sDgEW-9" style="edgeStyle=orthogonalEdgeStyle;rounded=0;orthogonalLoop=1;jettySize=auto;html=1;entryX=0;entryY=0.5;entryDx=0;entryDy=0;" parent="1" source="bVuMIwKVskYdWE2sDgEW-1" target="bVuMIwKVskYdWE2sDgEW-4" edge="1">
          <mxGeometry relative="1" as="geometry" />
        </mxCell>
        <mxCell id="-_Vb-yjnuvfRN7elQ3fJ-2" style="edgeStyle=orthogonalEdgeStyle;rounded=0;orthogonalLoop=1;jettySize=auto;html=1;entryX=0;entryY=0.5;entryDx=0;entryDy=0;" edge="1" parent="1" source="bVuMIwKVskYdWE2sDgEW-1" target="-_Vb-yjnuvfRN7elQ3fJ-1">
          <mxGeometry relative="1" as="geometry">
            <Array as="points">
              <mxPoint x="270" y="85" />
            </Array>
          </mxGeometry>
        </mxCell>
        <mxCell id="bVuMIwKVskYdWE2sDgEW-1" value="svc_bot" style="whiteSpace=wrap;html=1;aspect=fixed;fillColor=#fff2cc;strokeColor=#d6b656;" parent="1" vertex="1">
          <mxGeometry x="240" y="330" width="60" height="60" as="geometry" />
        </mxCell>
        <mxCell id="bVuMIwKVskYdWE2sDgEW-11" style="edgeStyle=orthogonalEdgeStyle;rounded=0;orthogonalLoop=1;jettySize=auto;html=1;entryX=1;entryY=0.5;entryDx=0;entryDy=0;exitX=1;exitY=0.5;exitDx=0;exitDy=0;" parent="1" source="bVuMIwKVskYdWE2sDgEW-2" target="bVuMIwKVskYdWE2sDgEW-5" edge="1">
          <mxGeometry relative="1" as="geometry">
            <Array as="points">
              <mxPoint x="480" y="360" />
              <mxPoint x="480" y="170" />
            </Array>
          </mxGeometry>
        </mxCell>
        <mxCell id="bVuMIwKVskYdWE2sDgEW-2" value="svc_card" style="whiteSpace=wrap;html=1;aspect=fixed;fillColor=#fff2cc;strokeColor=#d6b656;" parent="1" vertex="1">
          <mxGeometry x="384" y="330" width="60" height="60" as="geometry" />
        </mxCell>
        <mxCell id="bVuMIwKVskYdWE2sDgEW-10" style="edgeStyle=orthogonalEdgeStyle;rounded=0;orthogonalLoop=1;jettySize=auto;html=1;entryX=1;entryY=0.5;entryDx=0;entryDy=0;exitX=1;exitY=0.5;exitDx=0;exitDy=0;" parent="1" source="bVuMIwKVskYdWE2sDgEW-3" target="bVuMIwKVskYdWE2sDgEW-5" edge="1">
          <mxGeometry relative="1" as="geometry" />
        </mxCell>
        <mxCell id="bVuMIwKVskYdWE2sDgEW-3" value="svc_trz" style="whiteSpace=wrap;html=1;aspect=fixed;fillColor=#fff2cc;strokeColor=#d6b656;" parent="1" vertex="1">
          <mxGeometry x="384" y="240" width="60" height="60" as="geometry" />
        </mxCell>
        <mxCell id="bVuMIwKVskYdWE2sDgEW-12" style="edgeStyle=orthogonalEdgeStyle;rounded=0;orthogonalLoop=1;jettySize=auto;html=1;entryX=1;entryY=0.5;entryDx=0;entryDy=0;exitX=1;exitY=0.5;exitDx=0;exitDy=0;" parent="1" source="bVuMIwKVskYdWE2sDgEW-4" target="bVuMIwKVskYdWE2sDgEW-5" edge="1">
          <mxGeometry relative="1" as="geometry">
            <mxPoint x="510" y="160" as="targetPoint" />
            <Array as="points">
              <mxPoint x="500" y="450" />
              <mxPoint x="500" y="170" />
            </Array>
          </mxGeometry>
        </mxCell>
        <mxCell id="bVuMIwKVskYdWE2sDgEW-4" value="svc_client&lt;span style=&quot;color: rgba(0, 0, 0, 0); font-family: monospace; font-size: 0px; text-align: start; text-wrap: nowrap;&quot;&gt;%3CmxGraphModel%3E%3Croot%3E%3CmxCell%20id%3D%220%22%2F%3E%3CmxCell%20id%3D%221%22%20parent%3D%220%22%2F%3E%3CmxCell%20id%3D%222%22%20value%3D%22svc_bot%22%20style%3D%22whiteSpace%3Dwrap%3Bhtml%3D1%3Baspect%3Dfixed%3BfillColor%3D%23fff2cc%3BstrokeColor%3D%23d6b656%3B%22%20vertex%3D%221%22%20parent%3D%221%22%3E%3CmxGeometry%20x%3D%22240%22%20y%3D%22330%22%20width%3D%2260%22%20height%3D%2260%22%20as%3D%22geometry%22%2F%3E%3C%2FmxCell%3E%3C%2Froot%3E%3C%2FmxGraphModel%3E&lt;/span&gt;" style="whiteSpace=wrap;html=1;aspect=fixed;fillColor=#fff2cc;strokeColor=#d6b656;" parent="1" vertex="1">
          <mxGeometry x="384" y="420" width="60" height="60" as="geometry" />
        </mxCell>
        <mxCell id="bVuMIwKVskYdWE2sDgEW-5" value="svc_auth" style="whiteSpace=wrap;html=1;aspect=fixed;fillColor=#fff2cc;strokeColor=#d6b656;" parent="1" vertex="1">
          <mxGeometry x="384" y="140" width="60" height="60" as="geometry" />
        </mxCell>
        <mxCell id="-_Vb-yjnuvfRN7elQ3fJ-1" value="svc_register" style="whiteSpace=wrap;html=1;aspect=fixed;fillColor=#fff2cc;strokeColor=#d6b656;" vertex="1" parent="1">
          <mxGeometry x="379" y="50" width="70" height="70" as="geometry" />
        </mxCell>
        <mxCell id="-_Vb-yjnuvfRN7elQ3fJ-3" value="" style="rounded=0;whiteSpace=wrap;html=1;" vertex="1" parent="1">
          <mxGeometry x="250" y="645" width="20" height="445" as="geometry" />
        </mxCell>
        <mxCell id="-_Vb-yjnuvfRN7elQ3fJ-6" style="edgeStyle=orthogonalEdgeStyle;rounded=0;orthogonalLoop=1;jettySize=auto;html=1;entryX=0;entryY=0.5;entryDx=0;entryDy=0;" edge="1" parent="1" source="-_Vb-yjnuvfRN7elQ3fJ-5" target="-_Vb-yjnuvfRN7elQ3fJ-3">
          <mxGeometry relative="1" as="geometry" />
        </mxCell>
        <mxCell id="-_Vb-yjnuvfRN7elQ3fJ-5" value="Клиент" style="whiteSpace=wrap;html=1;aspect=fixed;fillColor=#fff2cc;strokeColor=#d6b656;" vertex="1" parent="1">
          <mxGeometry x="100" y="837.5" width="60" height="60" as="geometry" />
        </mxCell>
        <mxCell id="-_Vb-yjnuvfRN7elQ3fJ-8" value="Телеграм бот" style="rounded=0;whiteSpace=wrap;html=1;fillColor=#bac8d3;strokeColor=#23445d;" vertex="1" parent="1">
          <mxGeometry x="210" y="560" width="100" height="50" as="geometry" />
        </mxCell>
        <mxCell id="-_Vb-yjnuvfRN7elQ3fJ-9" value="" style="endArrow=none;dashed=1;html=1;dashPattern=1 3;strokeWidth=2;rounded=0;entryX=0.5;entryY=1;entryDx=0;entryDy=0;exitX=0.5;exitY=0;exitDx=0;exitDy=0;" edge="1" parent="1" source="-_Vb-yjnuvfRN7elQ3fJ-3" target="-_Vb-yjnuvfRN7elQ3fJ-8">
          <mxGeometry width="50" height="50" relative="1" as="geometry">
            <mxPoint x="330" y="700" as="sourcePoint" />
            <mxPoint x="380" y="650" as="targetPoint" />
          </mxGeometry>
        </mxCell>
        <mxCell id="-_Vb-yjnuvfRN7elQ3fJ-11" value="" style="rounded=0;whiteSpace=wrap;html=1;" vertex="1" parent="1">
          <mxGeometry x="480" y="645" width="20" height="85" as="geometry" />
        </mxCell>
        <mxCell id="-_Vb-yjnuvfRN7elQ3fJ-12" value="Сервис регистрации" style="rounded=0;whiteSpace=wrap;html=1;fillColor=#bac8d3;strokeColor=#23445d;" vertex="1" parent="1">
          <mxGeometry x="440" y="560" width="100" height="50" as="geometry" />
        </mxCell>
        <mxCell id="-_Vb-yjnuvfRN7elQ3fJ-13" value="" style="endArrow=none;dashed=1;html=1;dashPattern=1 3;strokeWidth=2;rounded=0;entryX=0.5;entryY=1;entryDx=0;entryDy=0;exitX=0.5;exitY=0;exitDx=0;exitDy=0;" edge="1" parent="1" source="-_Vb-yjnuvfRN7elQ3fJ-11" target="-_Vb-yjnuvfRN7elQ3fJ-12">
          <mxGeometry width="50" height="50" relative="1" as="geometry">
            <mxPoint x="560" y="700" as="sourcePoint" />
            <mxPoint x="610" y="650" as="targetPoint" />
          </mxGeometry>
        </mxCell>
        <mxCell id="-_Vb-yjnuvfRN7elQ3fJ-14" value="" style="endArrow=classic;html=1;rounded=0;exitX=1;exitY=0.5;exitDx=0;exitDy=0;entryX=0;entryY=0.5;entryDx=0;entryDy=0;" edge="1" parent="1">
          <mxGeometry width="50" height="50" relative="1" as="geometry">
            <mxPoint x="270" y="674.5" as="sourcePoint" />
            <mxPoint x="479.9999999999998" y="674.5" as="targetPoint" />
          </mxGeometry>
        </mxCell>
        <mxCell id="-_Vb-yjnuvfRN7elQ3fJ-15" value="1. Запрос на регистрацию" style="text;html=1;align=left;verticalAlign=middle;whiteSpace=wrap;rounded=0;" vertex="1" parent="1">
          <mxGeometry x="270" y="645" width="160" height="30" as="geometry" />
        </mxCell>
        <mxCell id="-_Vb-yjnuvfRN7elQ3fJ-16" value="" style="endArrow=classic;html=1;rounded=0;exitX=0;exitY=0.5;exitDx=0;exitDy=0;entryX=1;entryY=0.5;entryDx=0;entryDy=0;" edge="1" parent="1">
          <mxGeometry width="50" height="50" relative="1" as="geometry">
            <mxPoint x="479.9999999999998" y="702.5" as="sourcePoint" />
            <mxPoint x="270" y="702.5" as="targetPoint" />
          </mxGeometry>
        </mxCell>
        <mxCell id="-_Vb-yjnuvfRN7elQ3fJ-17" value="2. Успех / ошибка" style="text;html=1;align=left;verticalAlign=middle;whiteSpace=wrap;rounded=0;flipH=1;flipV=1;" vertex="1" parent="1">
          <mxGeometry x="270" y="675" width="160" height="30" as="geometry" />
        </mxCell>
        <mxCell id="-_Vb-yjnuvfRN7elQ3fJ-18" value="" style="rounded=0;whiteSpace=wrap;html=1;" vertex="1" parent="1">
          <mxGeometry x="680" y="730" width="20" height="120" as="geometry" />
        </mxCell>
        <mxCell id="-_Vb-yjnuvfRN7elQ3fJ-19" value="Сервис авторизации" style="rounded=0;whiteSpace=wrap;html=1;fillColor=#bac8d3;strokeColor=#23445d;" vertex="1" parent="1">
          <mxGeometry x="640" y="560" width="100" height="50" as="geometry" />
        </mxCell>
        <mxCell id="-_Vb-yjnuvfRN7elQ3fJ-20" value="" style="endArrow=none;dashed=1;html=1;dashPattern=1 3;strokeWidth=2;rounded=0;entryX=0.5;entryY=1;entryDx=0;entryDy=0;exitX=0.5;exitY=0;exitDx=0;exitDy=0;" edge="1" parent="1" source="-_Vb-yjnuvfRN7elQ3fJ-18" target="-_Vb-yjnuvfRN7elQ3fJ-19">
          <mxGeometry width="50" height="50" relative="1" as="geometry">
            <mxPoint x="760" y="700" as="sourcePoint" />
            <mxPoint x="810" y="650" as="targetPoint" />
          </mxGeometry>
        </mxCell>
        <mxCell id="-_Vb-yjnuvfRN7elQ3fJ-21" value="" style="endArrow=classic;html=1;rounded=0;exitX=1;exitY=0.5;exitDx=0;exitDy=0;entryX=0.033;entryY=0.32;entryDx=0;entryDy=0;entryPerimeter=0;" edge="1" parent="1" target="-_Vb-yjnuvfRN7elQ3fJ-18">
          <mxGeometry width="50" height="50" relative="1" as="geometry">
            <mxPoint x="270" y="768.5" as="sourcePoint" />
            <mxPoint x="680" y="770" as="targetPoint" />
          </mxGeometry>
        </mxCell>
        <mxCell id="-_Vb-yjnuvfRN7elQ3fJ-22" value="3. Авторизация по логину" style="text;html=1;align=left;verticalAlign=middle;whiteSpace=wrap;rounded=0;" vertex="1" parent="1">
          <mxGeometry x="270" y="739" width="160" height="30" as="geometry" />
        </mxCell>
        <mxCell id="-_Vb-yjnuvfRN7elQ3fJ-23" value="" style="endArrow=classic;html=1;rounded=0;exitX=-0.036;exitY=0.607;exitDx=0;exitDy=0;entryX=0;entryY=1;entryDx=0;entryDy=0;exitPerimeter=0;" edge="1" parent="1" source="-_Vb-yjnuvfRN7elQ3fJ-18" target="-_Vb-yjnuvfRN7elQ3fJ-24">
          <mxGeometry width="50" height="50" relative="1" as="geometry">
            <mxPoint x="574.9999999999998" y="802.5" as="sourcePoint" />
            <mxPoint x="365" y="803" as="targetPoint" />
          </mxGeometry>
        </mxCell>
        <mxCell id="-_Vb-yjnuvfRN7elQ3fJ-24" value="4. Выдача токена при успешной авторизации" style="text;html=1;align=left;verticalAlign=middle;whiteSpace=wrap;rounded=0;" vertex="1" parent="1">
          <mxGeometry x="270" y="775" width="275" height="30" as="geometry" />
        </mxCell>
        <mxCell id="-_Vb-yjnuvfRN7elQ3fJ-25" value="" style="rounded=0;whiteSpace=wrap;html=1;" vertex="1" parent="1">
          <mxGeometry x="890" y="730" width="20" height="260" as="geometry" />
        </mxCell>
        <mxCell id="-_Vb-yjnuvfRN7elQ3fJ-26" value="Сервис карт" style="rounded=0;whiteSpace=wrap;html=1;fillColor=#bac8d3;strokeColor=#23445d;" vertex="1" parent="1">
          <mxGeometry x="850" y="560" width="100" height="50" as="geometry" />
        </mxCell>
        <mxCell id="-_Vb-yjnuvfRN7elQ3fJ-27" value="" style="endArrow=none;dashed=1;html=1;dashPattern=1 3;strokeWidth=2;rounded=0;entryX=0.5;entryY=1;entryDx=0;entryDy=0;exitX=0.5;exitY=0;exitDx=0;exitDy=0;" edge="1" parent="1" source="-_Vb-yjnuvfRN7elQ3fJ-25" target="-_Vb-yjnuvfRN7elQ3fJ-26">
          <mxGeometry width="50" height="50" relative="1" as="geometry">
            <mxPoint x="970" y="700" as="sourcePoint" />
            <mxPoint x="1020" y="650" as="targetPoint" />
          </mxGeometry>
        </mxCell>
        <mxCell id="-_Vb-yjnuvfRN7elQ3fJ-28" value="" style="endArrow=classic;html=1;rounded=0;exitX=1;exitY=0.5;exitDx=0;exitDy=0;entryX=0.05;entryY=0.657;entryDx=0;entryDy=0;entryPerimeter=0;" edge="1" parent="1" target="-_Vb-yjnuvfRN7elQ3fJ-25">
          <mxGeometry width="50" height="50" relative="1" as="geometry">
            <mxPoint x="270" y="899.5" as="sourcePoint" />
            <mxPoint x="681" y="899" as="targetPoint" />
          </mxGeometry>
        </mxCell>
        <mxCell id="-_Vb-yjnuvfRN7elQ3fJ-29" value="5. Запрос на создание карты" style="text;html=1;align=left;verticalAlign=middle;whiteSpace=wrap;rounded=0;" vertex="1" parent="1">
          <mxGeometry x="270" y="870" width="170" height="30" as="geometry" />
        </mxCell>
        <mxCell id="-_Vb-yjnuvfRN7elQ3fJ-30" value="" style="endArrow=classic;html=1;rounded=0;exitX=-0.053;exitY=0.811;exitDx=0;exitDy=0;entryX=0;entryY=1;entryDx=0;entryDy=0;exitPerimeter=0;" edge="1" parent="1" target="-_Vb-yjnuvfRN7elQ3fJ-31" source="-_Vb-yjnuvfRN7elQ3fJ-25">
          <mxGeometry width="50" height="50" relative="1" as="geometry">
            <mxPoint x="679" y="934" as="sourcePoint" />
            <mxPoint x="365" y="934" as="targetPoint" />
          </mxGeometry>
        </mxCell>
        <mxCell id="-_Vb-yjnuvfRN7elQ3fJ-31" value="8. Возвращается номер карты, по которой дальше можно будет совершать транзакции" style="text;html=1;align=left;verticalAlign=middle;whiteSpace=wrap;rounded=0;" vertex="1" parent="1">
          <mxGeometry x="270" y="906" width="520" height="30" as="geometry" />
        </mxCell>
        <mxCell id="-_Vb-yjnuvfRN7elQ3fJ-32" value="" style="endArrow=classic;html=1;rounded=0;exitX=-0.053;exitY=0.307;exitDx=0;exitDy=0;entryX=1.033;entryY=0.423;entryDx=0;entryDy=0;entryPerimeter=0;exitPerimeter=0;" edge="1" parent="1">
          <mxGeometry width="50" height="50" relative="1" as="geometry">
            <mxPoint x="888.94" y="837.4999999999999" as="sourcePoint" />
            <mxPoint x="699.9999999999999" y="837.68" as="targetPoint" />
          </mxGeometry>
        </mxCell>
        <mxCell id="-_Vb-yjnuvfRN7elQ3fJ-33" value="6. Проверка токена" style="text;html=1;align=left;verticalAlign=middle;whiteSpace=wrap;rounded=0;" vertex="1" parent="1">
          <mxGeometry x="710" y="807.5" width="170" height="30" as="geometry" />
        </mxCell>
        <mxCell id="-_Vb-yjnuvfRN7elQ3fJ-34" value="" style="endArrow=classic;html=1;rounded=0;exitX=1;exitY=0.5;exitDx=0;exitDy=0;" edge="1" parent="1">
          <mxGeometry width="50" height="50" relative="1" as="geometry">
            <mxPoint x="700" y="798.5" as="sourcePoint" />
            <mxPoint x="890" y="799" as="targetPoint" />
          </mxGeometry>
        </mxCell>
        <mxCell id="-_Vb-yjnuvfRN7elQ3fJ-35" value="7. Если токен есть - ок" style="text;html=1;align=left;verticalAlign=middle;whiteSpace=wrap;rounded=0;" vertex="1" parent="1">
          <mxGeometry x="700" y="769" width="160" height="30" as="geometry" />
        </mxCell>
        <mxCell id="-_Vb-yjnuvfRN7elQ3fJ-36" value="" style="rounded=0;whiteSpace=wrap;html=1;" vertex="1" parent="1">
          <mxGeometry x="1060" y="970" width="20" height="140" as="geometry" />
        </mxCell>
        <mxCell id="-_Vb-yjnuvfRN7elQ3fJ-37" value="Сервис транзакций" style="rounded=0;whiteSpace=wrap;html=1;fillColor=#bac8d3;strokeColor=#23445d;" vertex="1" parent="1">
          <mxGeometry x="1020" y="560" width="100" height="50" as="geometry" />
        </mxCell>
        <mxCell id="-_Vb-yjnuvfRN7elQ3fJ-38" value="" style="endArrow=none;dashed=1;html=1;dashPattern=1 3;strokeWidth=2;rounded=0;entryX=0.5;entryY=1;entryDx=0;entryDy=0;exitX=0.5;exitY=0;exitDx=0;exitDy=0;" edge="1" parent="1" source="-_Vb-yjnuvfRN7elQ3fJ-36" target="-_Vb-yjnuvfRN7elQ3fJ-37">
          <mxGeometry width="50" height="50" relative="1" as="geometry">
            <mxPoint x="1140" y="700" as="sourcePoint" />
            <mxPoint x="1190" y="650" as="targetPoint" />
          </mxGeometry>
        </mxCell>
        <mxCell id="-_Vb-yjnuvfRN7elQ3fJ-39" value="" style="endArrow=classic;html=1;rounded=0;exitX=1;exitY=0.5;exitDx=0;exitDy=0;entryX=-0.083;entryY=0.389;entryDx=0;entryDy=0;entryPerimeter=0;" edge="1" parent="1" target="-_Vb-yjnuvfRN7elQ3fJ-36">
          <mxGeometry width="50" height="50" relative="1" as="geometry">
            <mxPoint x="269" y="1019.5" as="sourcePoint" />
            <mxPoint x="890" y="1021" as="targetPoint" />
          </mxGeometry>
        </mxCell>
        <mxCell id="-_Vb-yjnuvfRN7elQ3fJ-40" value="9. Запрос на совершение транзакции по карте" style="text;html=1;align=left;verticalAlign=middle;whiteSpace=wrap;rounded=0;" vertex="1" parent="1">
          <mxGeometry x="269" y="990" width="401" height="30" as="geometry" />
        </mxCell>
        <mxCell id="-_Vb-yjnuvfRN7elQ3fJ-41" value="" style="endArrow=classic;html=1;rounded=0;exitX=-0.167;exitY=0.663;exitDx=0;exitDy=0;entryX=0;entryY=1;entryDx=0;entryDy=0;exitPerimeter=0;" edge="1" parent="1" target="-_Vb-yjnuvfRN7elQ3fJ-42" source="-_Vb-yjnuvfRN7elQ3fJ-36">
          <mxGeometry width="50" height="50" relative="1" as="geometry">
            <mxPoint x="888" y="1061" as="sourcePoint" />
            <mxPoint x="364" y="1054" as="targetPoint" />
          </mxGeometry>
        </mxCell>
        <mxCell id="-_Vb-yjnuvfRN7elQ3fJ-42" value="12. Если сервис балансов разрешил провести транзакцию - возвращается 200" style="text;html=1;align=left;verticalAlign=middle;whiteSpace=wrap;rounded=0;" vertex="1" parent="1">
          <mxGeometry x="269" y="1026" width="520" height="30" as="geometry" />
        </mxCell>
        <mxCell id="-_Vb-yjnuvfRN7elQ3fJ-43" value="" style="rounded=0;whiteSpace=wrap;html=1;" vertex="1" parent="1">
          <mxGeometry x="1230.5" y="970" width="20" height="150" as="geometry" />
        </mxCell>
        <mxCell id="-_Vb-yjnuvfRN7elQ3fJ-44" value="Сервис балансов" style="rounded=0;whiteSpace=wrap;html=1;fillColor=#bac8d3;strokeColor=#23445d;" vertex="1" parent="1">
          <mxGeometry x="1191" y="560" width="100" height="50" as="geometry" />
        </mxCell>
        <mxCell id="-_Vb-yjnuvfRN7elQ3fJ-45" value="" style="endArrow=none;dashed=1;html=1;dashPattern=1 3;strokeWidth=2;rounded=0;entryX=0.5;entryY=1;entryDx=0;entryDy=0;exitX=0.5;exitY=0;exitDx=0;exitDy=0;" edge="1" parent="1" source="-_Vb-yjnuvfRN7elQ3fJ-43" target="-_Vb-yjnuvfRN7elQ3fJ-44">
          <mxGeometry width="50" height="50" relative="1" as="geometry">
            <mxPoint x="1311" y="700" as="sourcePoint" />
            <mxPoint x="1361" y="650" as="targetPoint" />
          </mxGeometry>
        </mxCell>
        <mxCell id="-_Vb-yjnuvfRN7elQ3fJ-46" value="" style="endArrow=classic;html=1;rounded=0;exitX=0.884;exitY=1.061;exitDx=0;exitDy=0;entryX=1.033;entryY=0.423;entryDx=0;entryDy=0;entryPerimeter=0;exitPerimeter=0;" edge="1" parent="1" source="-_Vb-yjnuvfRN7elQ3fJ-47">
          <mxGeometry width="50" height="50" relative="1" as="geometry">
            <mxPoint x="1268.94" y="1068.5" as="sourcePoint" />
            <mxPoint x="1080" y="1068.6799999999998" as="targetPoint" />
          </mxGeometry>
        </mxCell>
        <mxCell id="-_Vb-yjnuvfRN7elQ3fJ-47" value="11. Ок или не ок" style="text;html=1;align=left;verticalAlign=middle;whiteSpace=wrap;rounded=0;" vertex="1" parent="1">
          <mxGeometry x="1080.5" y="1038.5" width="170" height="30" as="geometry" />
        </mxCell>
        <mxCell id="-_Vb-yjnuvfRN7elQ3fJ-48" value="" style="endArrow=classic;html=1;rounded=0;exitX=1;exitY=0.5;exitDx=0;exitDy=0;entryX=0.922;entryY=1.039;entryDx=0;entryDy=0;entryPerimeter=0;" edge="1" parent="1" target="-_Vb-yjnuvfRN7elQ3fJ-49">
          <mxGeometry width="50" height="50" relative="1" as="geometry">
            <mxPoint x="1080" y="1029.5" as="sourcePoint" />
            <mxPoint x="1270" y="1030" as="targetPoint" />
          </mxGeometry>
        </mxCell>
        <mxCell id="-_Vb-yjnuvfRN7elQ3fJ-49" value="10. Проверка баланса" style="text;html=1;align=left;verticalAlign=middle;whiteSpace=wrap;rounded=0;" vertex="1" parent="1">
          <mxGeometry x="1080" y="1000" width="160" height="30" as="geometry" />
        </mxCell>
      </root>
    </mxGraphModel>
  </diagram>
</mxfile>
